<?xml version="1.0" encoding="UTF-8" standalone="no"?>
<!DOCTYPE svg PUBLIC "-//W3C//DTD SVG 1.1//EN"
 "http://www.w3.org/Graphics/SVG/1.1/DTD/svg11.dtd">
<!-- Generated by graphviz version 2.47.0 (20210316.0004)
 -->
<!-- Title: dbml Pages: 1 -->
<svg width="1409pt" height="1129pt"
 viewBox="0.00 0.00 1409.36 1128.92" xmlns="http://www.w3.org/2000/svg" xmlns:xlink="http://www.w3.org/1999/xlink">
<g id="graph0" class="graph" transform="scale(1 1) rotate(0) translate(4 1124.92)">
<title>dbml</title>
<!-- pc -->
<g id="pc" class="node">
<title>pc</title>
<ellipse fill="none" stroke="black" stroke-width="0" cx="647.65" cy="-373.53" rx="229.62" ry="299.63"/>
<polygon fill="#1d71b8" stroke="transparent" points="487.65,-523.53 487.65,-583.53 808.65,-583.53 808.65,-523.53 487.65,-523.53"/>
<polygon fill="none" stroke="#29235c" points="487.65,-523.53 487.65,-583.53 808.65,-583.53 808.65,-523.53 487.65,-523.53"/>
<text text-anchor="start" x="569" y="-544.73" font-family="Helvetica,sans-Serif" font-weight="bold" font-size="32.00" fill="#ffffff"> &#160;&#160;&#160;&#160;&#160;&#160;pc &#160;&#160;&#160;&#160;&#160;&#160;</text>
<polygon fill="#e7e2dd" stroke="transparent" points="487.65,-463.53 487.65,-523.53 808.65,-523.53 808.65,-463.53 487.65,-463.53"/>
<polygon fill="none" stroke="#29235c" points="487.65,-463.53 487.65,-523.53 808.65,-523.53 808.65,-463.53 487.65,-463.53"/>
<text text-anchor="start" x="498.65" y="-484.73" font-family="Helvetica,sans-Serif" font-weight="bold" font-size="32.00" fill="#29235c">id</text>
<text text-anchor="start" x="523.54" y="-484.73" font-family="Helvetica,sans-Serif" font-size="32.00" fill="#29235c"> &#160;&#160;&#160;</text>
<text text-anchor="start" x="699.85" y="-484.73" font-family="Helvetica,sans-Serif" font-style="italic" font-size="32.00" fill="#29235c">integer</text>
<polygon fill="#e7e2dd" stroke="transparent" points="487.65,-403.53 487.65,-463.53 808.65,-463.53 808.65,-403.53 487.65,-403.53"/>
<polygon fill="none" stroke="#29235c" points="487.65,-403.53 487.65,-463.53 808.65,-463.53 808.65,-403.53 487.65,-403.53"/>
<text text-anchor="start" x="498.65" y="-423.73" font-family="Helvetica,sans-Serif" font-size="32.00" fill="#29235c">os &#160;&#160;&#160;</text>
<text text-anchor="start" x="690.98" y="-424.73" font-family="Helvetica,sans-Serif" font-style="italic" font-size="32.00" fill="#29235c">varchar</text>
<polygon fill="#e7e2dd" stroke="transparent" points="487.65,-343.53 487.65,-403.53 808.65,-403.53 808.65,-343.53 487.65,-343.53"/>
<polygon fill="none" stroke="#29235c" points="487.65,-343.53 487.65,-403.53 808.65,-403.53 808.65,-343.53 487.65,-343.53"/>
<text text-anchor="start" x="498.65" y="-363.73" font-family="Helvetica,sans-Serif" font-size="32.00" fill="#29235c">ram &#160;&#160;&#160;</text>
<text text-anchor="start" x="690.98" y="-364.73" font-family="Helvetica,sans-Serif" font-style="italic" font-size="32.00" fill="#29235c">varchar</text>
<polygon fill="#e7e2dd" stroke="transparent" points="487.65,-283.53 487.65,-343.53 808.65,-343.53 808.65,-283.53 487.65,-283.53"/>
<polygon fill="none" stroke="#29235c" points="487.65,-283.53 487.65,-343.53 808.65,-343.53 808.65,-283.53 487.65,-283.53"/>
<text text-anchor="start" x="498.21" y="-303.73" font-family="Helvetica,sans-Serif" font-size="32.00" fill="#29235c">date_achat &#160;&#160;&#160;</text>
<text text-anchor="start" x="691.31" y="-304.73" font-family="Helvetica,sans-Serif" font-style="italic" font-size="32.00" fill="#29235c">varchar</text>
<polygon fill="#e7e2dd" stroke="transparent" points="487.65,-223.53 487.65,-283.53 808.65,-283.53 808.65,-223.53 487.65,-223.53"/>
<polygon fill="none" stroke="#29235c" points="487.65,-223.53 487.65,-283.53 808.65,-283.53 808.65,-223.53 487.65,-223.53"/>
<text text-anchor="start" x="498.65" y="-243.73" font-family="Helvetica,sans-Serif" font-size="32.00" fill="#29235c">id_marque &#160;&#160;&#160;</text>
<text text-anchor="start" x="699.85" y="-244.73" font-family="Helvetica,sans-Serif" font-style="italic" font-size="32.00" fill="#29235c">integer</text>
<polygon fill="#e7e2dd" stroke="transparent" points="487.65,-163.53 487.65,-223.53 808.65,-223.53 808.65,-163.53 487.65,-163.53"/>
<polygon fill="none" stroke="#29235c" points="487.65,-163.53 487.65,-223.53 808.65,-223.53 808.65,-163.53 487.65,-163.53"/>
<text text-anchor="start" x="498.65" y="-183.73" font-family="Helvetica,sans-Serif" font-size="32.00" fill="#29235c">id_logiciel &#160;&#160;&#160;</text>
<text text-anchor="start" x="699.85" y="-184.73" font-family="Helvetica,sans-Serif" font-style="italic" font-size="32.00" fill="#29235c">integer</text>
<polygon fill="none" stroke="#29235c" stroke-width="2" points="486.15,-162.53 486.15,-584.53 809.15,-584.53 809.15,-162.53 486.15,-162.53"/>
</g>
<!-- users -->
<g id="users" class="node">
<title>users</title>
<ellipse fill="none" stroke="black" stroke-width="0" cx="1157.41" cy="-373.53" rx="195.32" ry="214.92"/>
<polygon fill="#1d71b8" stroke="transparent" points="1021.41,-463.53 1021.41,-523.53 1293.41,-523.53 1293.41,-463.53 1021.41,-463.53"/>
<polygon fill="none" stroke="#29235c" points="1021.41,-463.53 1021.41,-523.53 1293.41,-523.53 1293.41,-463.53 1021.41,-463.53"/>
<text text-anchor="start" x="1056.04" y="-484.73" font-family="Helvetica,sans-Serif" font-weight="bold" font-size="32.00" fill="#ffffff"> &#160;&#160;&#160;&#160;&#160;&#160;users &#160;&#160;&#160;&#160;&#160;&#160;</text>
<polygon fill="#e7e2dd" stroke="transparent" points="1021.41,-403.53 1021.41,-463.53 1293.41,-463.53 1293.41,-403.53 1021.41,-403.53"/>
<polygon fill="none" stroke="#29235c" points="1021.41,-403.53 1021.41,-463.53 1293.41,-463.53 1293.41,-403.53 1021.41,-403.53"/>
<text text-anchor="start" x="1032.41" y="-424.73" font-family="Helvetica,sans-Serif" font-weight="bold" font-size="32.00" fill="#29235c">id</text>
<text text-anchor="start" x="1057.3" y="-424.73" font-family="Helvetica,sans-Serif" font-size="32.00" fill="#29235c"> &#160;&#160;&#160;</text>
<text text-anchor="start" x="1184.61" y="-424.73" font-family="Helvetica,sans-Serif" font-style="italic" font-size="32.00" fill="#29235c">integer</text>
<polygon fill="#e7e2dd" stroke="transparent" points="1021.41,-343.53 1021.41,-403.53 1293.41,-403.53 1293.41,-343.53 1021.41,-343.53"/>
<polygon fill="none" stroke="#29235c" points="1021.41,-343.53 1021.41,-403.53 1293.41,-403.53 1293.41,-343.53 1021.41,-343.53"/>
<text text-anchor="start" x="1032.41" y="-363.73" font-family="Helvetica,sans-Serif" font-size="32.00" fill="#29235c">nom &#160;&#160;&#160;</text>
<text text-anchor="start" x="1175.74" y="-364.73" font-family="Helvetica,sans-Serif" font-style="italic" font-size="32.00" fill="#29235c">varchar</text>
<polygon fill="#e7e2dd" stroke="transparent" points="1021.41,-283.53 1021.41,-343.53 1293.41,-343.53 1293.41,-283.53 1021.41,-283.53"/>
<polygon fill="none" stroke="#29235c" points="1021.41,-283.53 1021.41,-343.53 1293.41,-343.53 1293.41,-283.53 1021.41,-283.53"/>
<text text-anchor="start" x="1032.39" y="-303.73" font-family="Helvetica,sans-Serif" font-size="32.00" fill="#29235c">prenom &#160;&#160;&#160;</text>
<text text-anchor="start" x="1176.07" y="-304.73" font-family="Helvetica,sans-Serif" font-style="italic" font-size="32.00" fill="#29235c">varchar</text>
<polygon fill="#e7e2dd" stroke="transparent" points="1021.41,-223.53 1021.41,-283.53 1293.41,-283.53 1293.41,-223.53 1021.41,-223.53"/>
<polygon fill="none" stroke="#29235c" points="1021.41,-223.53 1021.41,-283.53 1293.41,-283.53 1293.41,-223.53 1021.41,-223.53"/>
<text text-anchor="start" x="1032.41" y="-243.73" font-family="Helvetica,sans-Serif" font-size="32.00" fill="#29235c">id_pc &#160;&#160;&#160;</text>
<text text-anchor="start" x="1184.61" y="-244.73" font-family="Helvetica,sans-Serif" font-style="italic" font-size="32.00" fill="#29235c">integer</text>
<polygon fill="none" stroke="#29235c" stroke-width="2" points="1020.41,-222.53 1020.41,-524.53 1294.41,-524.53 1294.41,-222.53 1020.41,-222.53"/>
</g>
<!-- pc&#45;&gt;users -->
<!-- pc&#45;&gt;users -->
<g id="edge2" class="edge">
<title>pc:e&#45;&gt;users:w</title>
<path fill="none" stroke="#29235c" stroke-width="3" d="M809.65,-493.53C948.14,-493.53 881.89,-265.11 1010.39,-253.96"/>
<polygon fill="#29235c" stroke="#29235c" stroke-width="3" points="1010.57,-257.45 1020.41,-253.53 1010.27,-250.46 1010.57,-257.45"/>
<text text-anchor="middle" x="1026.63" y="-224.73" font-family="Helvetica,sans-Serif" font-size="32.00" fill="#29235c">*</text>
<text text-anchor="middle" x="800.75" y="-503.13" font-family="Helvetica,sans-Serif" font-size="32.00" fill="#29235c">1</text>
</g>
<!-- maintenance -->
<g id="maintenance" class="node">
<title>maintenance</title>
<ellipse fill="none" stroke="black" stroke-width="0" cx="1157.41" cy="-863.53" rx="243.9" ry="257.27"/>
<polygon fill="#1d71b8" stroke="transparent" points="987.41,-983.53 987.41,-1043.53 1328.41,-1043.53 1328.41,-983.53 987.41,-983.53"/>
<polygon fill="none" stroke="#29235c" points="987.41,-983.53 987.41,-1043.53 1328.41,-1043.53 1328.41,-983.53 987.41,-983.53"/>
<text text-anchor="start" x="1004.08" y="-1004.73" font-family="Helvetica,sans-Serif" font-weight="bold" font-size="32.00" fill="#ffffff"> &#160;&#160;&#160;&#160;&#160;&#160;maintenance &#160;&#160;&#160;&#160;&#160;&#160;</text>
<polygon fill="#e7e2dd" stroke="transparent" points="987.41,-923.53 987.41,-983.53 1328.41,-983.53 1328.41,-923.53 987.41,-923.53"/>
<polygon fill="none" stroke="#29235c" points="987.41,-923.53 987.41,-983.53 1328.41,-983.53 1328.41,-923.53 987.41,-923.53"/>
<text text-anchor="start" x="998.41" y="-944.73" font-family="Helvetica,sans-Serif" font-weight="bold" font-size="32.00" fill="#29235c">id</text>
<text text-anchor="start" x="1023.3" y="-944.73" font-family="Helvetica,sans-Serif" font-size="32.00" fill="#29235c"> &#160;&#160;&#160;</text>
<text text-anchor="start" x="1219.61" y="-944.73" font-family="Helvetica,sans-Serif" font-style="italic" font-size="32.00" fill="#29235c">integer</text>
<polygon fill="#e7e2dd" stroke="transparent" points="987.41,-863.53 987.41,-923.53 1328.41,-923.53 1328.41,-863.53 987.41,-863.53"/>
<polygon fill="none" stroke="#29235c" points="987.41,-863.53 987.41,-923.53 1328.41,-923.53 1328.41,-863.53 987.41,-863.53"/>
<text text-anchor="start" x="998.41" y="-883.73" font-family="Helvetica,sans-Serif" font-size="32.00" fill="#29235c">description &#160;&#160;&#160;</text>
<text text-anchor="start" x="1265.83" y="-884.73" font-family="Helvetica,sans-Serif" font-style="italic" font-size="32.00" fill="#29235c">text</text>
<polygon fill="#e7e2dd" stroke="transparent" points="987.41,-803.53 987.41,-863.53 1328.41,-863.53 1328.41,-803.53 987.41,-803.53"/>
<polygon fill="none" stroke="#29235c" points="987.41,-803.53 987.41,-863.53 1328.41,-863.53 1328.41,-803.53 987.41,-803.53"/>
<text text-anchor="start" x="998.41" y="-823.73" font-family="Helvetica,sans-Serif" font-size="32.00" fill="#29235c">date &#160;&#160;&#160;</text>
<text text-anchor="start" x="1255.15" y="-824.73" font-family="Helvetica,sans-Serif" font-style="italic" font-size="32.00" fill="#29235c">date</text>
<polygon fill="#e7e2dd" stroke="transparent" points="987.41,-743.53 987.41,-803.53 1328.41,-803.53 1328.41,-743.53 987.41,-743.53"/>
<polygon fill="none" stroke="#29235c" points="987.41,-743.53 987.41,-803.53 1328.41,-803.53 1328.41,-743.53 987.41,-743.53"/>
<text text-anchor="start" x="998.26" y="-763.73" font-family="Helvetica,sans-Serif" font-size="32.00" fill="#29235c">id_technicien &#160;&#160;&#160;</text>
<text text-anchor="start" x="1220.01" y="-764.73" font-family="Helvetica,sans-Serif" font-style="italic" font-size="32.00" fill="#29235c">integer</text>
<polygon fill="#e7e2dd" stroke="transparent" points="987.41,-683.53 987.41,-743.53 1328.41,-743.53 1328.41,-683.53 987.41,-683.53"/>
<polygon fill="none" stroke="#29235c" points="987.41,-683.53 987.41,-743.53 1328.41,-743.53 1328.41,-683.53 987.41,-683.53"/>
<text text-anchor="start" x="998.41" y="-703.73" font-family="Helvetica,sans-Serif" font-size="32.00" fill="#29235c">id_pc &#160;&#160;&#160;</text>
<text text-anchor="start" x="1219.61" y="-704.73" font-family="Helvetica,sans-Serif" font-style="italic" font-size="32.00" fill="#29235c">integer</text>
<polygon fill="none" stroke="#29235c" stroke-width="2" points="985.91,-682.53 985.91,-1044.53 1328.91,-1044.53 1328.91,-682.53 985.91,-682.53"/>
</g>
<!-- pc&#45;&gt;maintenance -->
<!-- pc&#45;&gt;maintenance -->
<g id="edge4" class="edge">
<title>pc:e&#45;&gt;maintenance:w</title>
<path fill="none" stroke="#29235c" stroke-width="3" d="M809.65,-493.53C931.52,-493.53 865.02,-701.25 976.22,-713.01"/>
<polygon fill="#29235c" stroke="#29235c" stroke-width="3" points="976.24,-716.52 986.41,-713.53 976.6,-709.53 976.24,-716.52"/>
<text text-anchor="middle" x="992.63" y="-723.13" font-family="Helvetica,sans-Serif" font-size="32.00" fill="#29235c">*</text>
<text text-anchor="middle" x="818.54" y="-503.13" font-family="Helvetica,sans-Serif" font-size="32.00" fill="#29235c">1</text>
</g>
<!-- logiciels -->
<g id="logiciels" class="node">
<title>logiciels</title>
<ellipse fill="none" stroke="black" stroke-width="0" cx="190.92" cy="-172.53" rx="190.84" ry="172.57"/>
<polygon fill="#1d71b8" stroke="transparent" points="57.92,-232.53 57.92,-292.53 323.92,-292.53 323.92,-232.53 57.92,-232.53"/>
<polygon fill="none" stroke="#29235c" points="57.92,-232.53 57.92,-292.53 323.92,-292.53 323.92,-232.53 57.92,-232.53"/>
<text text-anchor="start" x="71.78" y="-253.73" font-family="Helvetica,sans-Serif" font-weight="bold" font-size="32.00" fill="#ffffff"> &#160;&#160;&#160;&#160;&#160;&#160;logiciels &#160;&#160;&#160;&#160;&#160;&#160;</text>
<polygon fill="#e7e2dd" stroke="transparent" points="57.92,-172.53 57.92,-232.53 323.92,-232.53 323.92,-172.53 57.92,-172.53"/>
<polygon fill="none" stroke="#29235c" points="57.92,-172.53 57.92,-232.53 323.92,-232.53 323.92,-172.53 57.92,-172.53"/>
<text text-anchor="start" x="68.92" y="-193.73" font-family="Helvetica,sans-Serif" font-weight="bold" font-size="32.00" fill="#29235c">id</text>
<text text-anchor="start" x="93.81" y="-193.73" font-family="Helvetica,sans-Serif" font-size="32.00" fill="#29235c"> &#160;&#160;&#160;</text>
<text text-anchor="start" x="215.12" y="-193.73" font-family="Helvetica,sans-Serif" font-style="italic" font-size="32.00" fill="#29235c">integer</text>
<polygon fill="#e7e2dd" stroke="transparent" points="57.92,-112.53 57.92,-172.53 323.92,-172.53 323.92,-112.53 57.92,-112.53"/>
<polygon fill="none" stroke="#29235c" points="57.92,-112.53 57.92,-172.53 323.92,-172.53 323.92,-112.53 57.92,-112.53"/>
<text text-anchor="start" x="68.92" y="-132.73" font-family="Helvetica,sans-Serif" font-size="32.00" fill="#29235c">nom &#160;&#160;&#160;</text>
<text text-anchor="start" x="206.25" y="-133.73" font-family="Helvetica,sans-Serif" font-style="italic" font-size="32.00" fill="#29235c">varchar</text>
<polygon fill="#e7e2dd" stroke="transparent" points="57.92,-52.53 57.92,-112.53 323.92,-112.53 323.92,-52.53 57.92,-52.53"/>
<polygon fill="none" stroke="#29235c" points="57.92,-52.53 57.92,-112.53 323.92,-112.53 323.92,-52.53 57.92,-52.53"/>
<text text-anchor="start" x="68.57" y="-72.73" font-family="Helvetica,sans-Serif" font-size="32.00" fill="#29235c">version &#160;&#160;&#160;</text>
<text text-anchor="start" x="206.58" y="-73.73" font-family="Helvetica,sans-Serif" font-style="italic" font-size="32.00" fill="#29235c">varchar</text>
<polygon fill="none" stroke="#29235c" stroke-width="2" points="56.92,-51.53 56.92,-293.53 324.92,-293.53 324.92,-51.53 56.92,-51.53"/>
</g>
<!-- logiciels&#45;&gt;pc -->
<!-- logiciels&#45;&gt;pc -->
<g id="edge6" class="edge">
<title>logiciels:e&#45;&gt;pc:w</title>
<path fill="none" stroke="#29235c" stroke-width="3" d="M324.92,-202.53C393.39,-202.53 412.79,-194.39 476.48,-193.6"/>
<polygon fill="#29235c" stroke="#29235c" stroke-width="3" points="476.67,-197.1 486.65,-193.53 476.63,-190.1 476.67,-197.1"/>
<text text-anchor="middle" x="492.87" y="-164.73" font-family="Helvetica,sans-Serif" font-size="32.00" fill="#29235c">*</text>
<text text-anchor="middle" x="316.02" y="-173.73" font-family="Helvetica,sans-Serif" font-size="32.00" fill="#29235c">1</text>
</g>
<!-- marque -->
<g id="marque" class="node">
<title>marque</title>
<ellipse fill="none" stroke="black" stroke-width="0" cx="190.92" cy="-493.53" rx="182.37" ry="130.22"/>
<polygon fill="#1d71b8" stroke="transparent" points="63.92,-523.53 63.92,-583.53 317.92,-583.53 317.92,-523.53 63.92,-523.53"/>
<polygon fill="none" stroke="#29235c" points="63.92,-523.53 63.92,-583.53 317.92,-583.53 317.92,-523.53 63.92,-523.53"/>
<text text-anchor="start" x="74.44" y="-544.73" font-family="Helvetica,sans-Serif" font-weight="bold" font-size="32.00" fill="#ffffff"> &#160;&#160;&#160;&#160;&#160;&#160;marque &#160;&#160;&#160;&#160;&#160;&#160;</text>
<polygon fill="#e7e2dd" stroke="transparent" points="63.92,-463.53 63.92,-523.53 317.92,-523.53 317.92,-463.53 63.92,-463.53"/>
<polygon fill="none" stroke="#29235c" points="63.92,-463.53 63.92,-523.53 317.92,-523.53 317.92,-463.53 63.92,-463.53"/>
<text text-anchor="start" x="74.92" y="-484.73" font-family="Helvetica,sans-Serif" font-weight="bold" font-size="32.00" fill="#29235c">id</text>
<text text-anchor="start" x="99.81" y="-484.73" font-family="Helvetica,sans-Serif" font-size="32.00" fill="#29235c"> &#160;&#160;&#160;</text>
<text text-anchor="start" x="209.12" y="-484.73" font-family="Helvetica,sans-Serif" font-style="italic" font-size="32.00" fill="#29235c">integer</text>
<polygon fill="#e7e2dd" stroke="transparent" points="63.92,-403.53 63.92,-463.53 317.92,-463.53 317.92,-403.53 63.92,-403.53"/>
<polygon fill="none" stroke="#29235c" points="63.92,-403.53 63.92,-463.53 317.92,-463.53 317.92,-403.53 63.92,-403.53"/>
<text text-anchor="start" x="74.92" y="-423.73" font-family="Helvetica,sans-Serif" font-size="32.00" fill="#29235c">nom &#160;&#160;&#160;</text>
<text text-anchor="start" x="200.25" y="-424.73" font-family="Helvetica,sans-Serif" font-style="italic" font-size="32.00" fill="#29235c">varchar</text>
<polygon fill="none" stroke="#29235c" stroke-width="2" points="62.92,-402.53 62.92,-584.53 318.92,-584.53 318.92,-402.53 62.92,-402.53"/>
</g>
<!-- marque&#45;&gt;pc -->
<!-- marque&#45;&gt;pc -->
<g id="edge10" class="edge">
<title>marque:e&#45;&gt;pc:w</title>
<path fill="none" stroke="#29235c" stroke-width="3" d="M318.92,-493.53C445.49,-493.53 361.41,-266.48 476.46,-254.06"/>
<polygon fill="#29235c" stroke="#29235c" stroke-width="3" points="476.84,-257.55 486.65,-253.53 476.48,-250.56 476.84,-257.55"/>
<text text-anchor="middle" x="492.87" y="-224.73" font-family="Helvetica,sans-Serif" font-size="32.00" fill="#29235c">*</text>
<text text-anchor="middle" x="310.02" y="-503.13" font-family="Helvetica,sans-Serif" font-size="32.00" fill="#29235c">1</text>
</g>
<!-- technicien -->
<g id="technicien" class="node">
<title>technicien</title>
<ellipse fill="none" stroke="black" stroke-width="0" cx="647.65" cy="-923.53" rx="207.78" ry="172.57"/>
<polygon fill="#1d71b8" stroke="transparent" points="502.65,-983.53 502.65,-1043.53 792.65,-1043.53 792.65,-983.53 502.65,-983.53"/>
<polygon fill="none" stroke="#29235c" points="502.65,-983.53 502.65,-1043.53 792.65,-1043.53 792.65,-983.53 502.65,-983.53"/>
<text text-anchor="start" x="513.38" y="-1004.73" font-family="Helvetica,sans-Serif" font-weight="bold" font-size="32.00" fill="#ffffff"> &#160;&#160;&#160;&#160;&#160;&#160;technicien &#160;&#160;&#160;&#160;&#160;&#160;</text>
<polygon fill="#e7e2dd" stroke="transparent" points="502.65,-923.53 502.65,-983.53 792.65,-983.53 792.65,-923.53 502.65,-923.53"/>
<polygon fill="none" stroke="#29235c" points="502.65,-923.53 502.65,-983.53 792.65,-983.53 792.65,-923.53 502.65,-923.53"/>
<text text-anchor="start" x="513.65" y="-944.73" font-family="Helvetica,sans-Serif" font-weight="bold" font-size="32.00" fill="#29235c">id</text>
<text text-anchor="start" x="538.54" y="-944.73" font-family="Helvetica,sans-Serif" font-size="32.00" fill="#29235c"> &#160;&#160;&#160;</text>
<text text-anchor="start" x="683.85" y="-944.73" font-family="Helvetica,sans-Serif" font-style="italic" font-size="32.00" fill="#29235c">integer</text>
<polygon fill="#e7e2dd" stroke="transparent" points="502.65,-863.53 502.65,-923.53 792.65,-923.53 792.65,-863.53 502.65,-863.53"/>
<polygon fill="none" stroke="#29235c" points="502.65,-863.53 502.65,-923.53 792.65,-923.53 792.65,-863.53 502.65,-863.53"/>
<text text-anchor="start" x="513.65" y="-883.73" font-family="Helvetica,sans-Serif" font-size="32.00" fill="#29235c">nom &#160;&#160;&#160;</text>
<text text-anchor="start" x="674.98" y="-884.73" font-family="Helvetica,sans-Serif" font-style="italic" font-size="32.00" fill="#29235c">varchar</text>
<polygon fill="#e7e2dd" stroke="transparent" points="502.65,-803.53 502.65,-863.53 792.65,-863.53 792.65,-803.53 502.65,-803.53"/>
<polygon fill="none" stroke="#29235c" points="502.65,-803.53 502.65,-863.53 792.65,-863.53 792.65,-803.53 502.65,-803.53"/>
<text text-anchor="start" x="513.65" y="-823.73" font-family="Helvetica,sans-Serif" font-size="32.00" fill="#29235c">prenom &#160;&#160;&#160;</text>
<text text-anchor="start" x="674.98" y="-824.73" font-family="Helvetica,sans-Serif" font-style="italic" font-size="32.00" fill="#29235c">varchar</text>
<polygon fill="none" stroke="#29235c" stroke-width="2" points="501.65,-802.53 501.65,-1044.53 793.65,-1044.53 793.65,-802.53 501.65,-802.53"/>
</g>
<!-- technicien&#45;&gt;maintenance -->
<!-- technicien&#45;&gt;maintenance -->
<g id="edge8" class="edge">
<title>technicien:e&#45;&gt;maintenance:w</title>
<path fill="none" stroke="#29235c" stroke-width="3" d="M793.65,-953.53C907.32,-953.53 871.57,-784.27 976.19,-774.02"/>
<polygon fill="#29235c" stroke="#29235c" stroke-width="3" points="976.59,-777.5 986.41,-773.53 976.25,-770.51 976.59,-777.5"/>
<text text-anchor="middle" x="992.63" y="-783.13" font-family="Helvetica,sans-Serif" font-size="32.00" fill="#29235c">*</text>
<text text-anchor="middle" x="784.75" y="-963.13" font-family="Helvetica,sans-Serif" font-size="32.00" fill="#29235c">1</text>
</g>
</g>
</svg>
