<?xml version="1.0" encoding="UTF-8" standalone="no"?>
<!DOCTYPE svg PUBLIC "-//W3C//DTD SVG 1.1//EN"
 "http://www.w3.org/Graphics/SVG/1.1/DTD/svg11.dtd">
<!-- Generated by graphviz version 2.47.0 (20210316.0004)
 -->
<!-- Title: dbml Pages: 1 -->
<svg width="1402pt" height="1242pt"
 viewBox="0.00 0.00 1402.29 1242.49" xmlns="http://www.w3.org/2000/svg" xmlns:xlink="http://www.w3.org/1999/xlink">
<g id="graph0" class="graph" transform="scale(1 1) rotate(0) translate(4 1238.49)">
<title>dbml</title>
<!-- pc -->
<g id="pc" class="node">
<title>pc</title>
<ellipse fill="none" stroke="black" stroke-width="0" cx="651.89" cy="-687.39" rx="218.49" ry="299.63"/>
<polygon fill="#1d71b8" stroke="transparent" points="499.89,-837.39 499.89,-897.39 804.89,-897.39 804.89,-837.39 499.89,-837.39"/>
<polygon fill="none" stroke="#29235c" points="499.89,-837.39 499.89,-897.39 804.89,-897.39 804.89,-837.39 499.89,-837.39"/>
<text text-anchor="start" x="573.25" y="-858.59" font-family="Helvetica,sans-Serif" font-weight="bold" font-size="32.00" fill="#ffffff"> &#160;&#160;&#160;&#160;&#160;&#160;pc &#160;&#160;&#160;&#160;&#160;&#160;</text>
<polygon fill="#e7e2dd" stroke="transparent" points="499.89,-777.39 499.89,-837.39 804.89,-837.39 804.89,-777.39 499.89,-777.39"/>
<polygon fill="none" stroke="#29235c" points="499.89,-777.39 499.89,-837.39 804.89,-837.39 804.89,-777.39 499.89,-777.39"/>
<text text-anchor="start" x="510.89" y="-798.59" font-family="Helvetica,sans-Serif" font-weight="bold" font-size="32.00" fill="#29235c">id</text>
<text text-anchor="start" x="535.78" y="-798.59" font-family="Helvetica,sans-Serif" font-size="32.00" fill="#29235c"> &#160;&#160;&#160;</text>
<text text-anchor="start" x="696.09" y="-798.59" font-family="Helvetica,sans-Serif" font-style="italic" font-size="32.00" fill="#29235c">integer</text>
<polygon fill="#e7e2dd" stroke="transparent" points="499.89,-717.39 499.89,-777.39 804.89,-777.39 804.89,-717.39 499.89,-717.39"/>
<polygon fill="none" stroke="#29235c" points="499.89,-717.39 499.89,-777.39 804.89,-777.39 804.89,-717.39 499.89,-717.39"/>
<text text-anchor="start" x="510.89" y="-737.59" font-family="Helvetica,sans-Serif" font-size="32.00" fill="#29235c">date_achat &#160;&#160;&#160;</text>
<text text-anchor="start" x="731.63" y="-738.59" font-family="Helvetica,sans-Serif" font-style="italic" font-size="32.00" fill="#29235c">date</text>
<polygon fill="#e7e2dd" stroke="transparent" points="499.89,-657.39 499.89,-717.39 804.89,-717.39 804.89,-657.39 499.89,-657.39"/>
<polygon fill="none" stroke="#29235c" points="499.89,-657.39 499.89,-717.39 804.89,-717.39 804.89,-657.39 499.89,-657.39"/>
<text text-anchor="start" x="510.53" y="-677.59" font-family="Helvetica,sans-Serif" font-size="32.00" fill="#29235c">id_marque &#160;&#160;&#160;</text>
<text text-anchor="start" x="696.49" y="-678.59" font-family="Helvetica,sans-Serif" font-style="italic" font-size="32.00" fill="#29235c">integer</text>
<polygon fill="#e7e2dd" stroke="transparent" points="499.89,-597.39 499.89,-657.39 804.89,-657.39 804.89,-597.39 499.89,-597.39"/>
<polygon fill="none" stroke="#29235c" points="499.89,-597.39 499.89,-657.39 804.89,-657.39 804.89,-597.39 499.89,-597.39"/>
<text text-anchor="start" x="510.89" y="-617.59" font-family="Helvetica,sans-Serif" font-size="32.00" fill="#29235c">id_ram &#160;&#160;&#160;</text>
<text text-anchor="start" x="696.09" y="-618.59" font-family="Helvetica,sans-Serif" font-style="italic" font-size="32.00" fill="#29235c">integer</text>
<polygon fill="#e7e2dd" stroke="transparent" points="499.89,-537.39 499.89,-597.39 804.89,-597.39 804.89,-537.39 499.89,-537.39"/>
<polygon fill="none" stroke="#29235c" points="499.89,-537.39 499.89,-597.39 804.89,-597.39 804.89,-537.39 499.89,-537.39"/>
<text text-anchor="start" x="510.89" y="-557.59" font-family="Helvetica,sans-Serif" font-size="32.00" fill="#29235c">id_os &#160;&#160;&#160;</text>
<text text-anchor="start" x="696.09" y="-558.59" font-family="Helvetica,sans-Serif" font-style="italic" font-size="32.00" fill="#29235c">integer</text>
<polygon fill="#e7e2dd" stroke="transparent" points="499.89,-477.39 499.89,-537.39 804.89,-537.39 804.89,-477.39 499.89,-477.39"/>
<polygon fill="none" stroke="#29235c" points="499.89,-477.39 499.89,-537.39 804.89,-537.39 804.89,-477.39 499.89,-477.39"/>
<text text-anchor="start" x="510.89" y="-497.59" font-family="Helvetica,sans-Serif" font-size="32.00" fill="#29235c">id_logiciel &#160;&#160;&#160;</text>
<text text-anchor="start" x="696.09" y="-498.59" font-family="Helvetica,sans-Serif" font-style="italic" font-size="32.00" fill="#29235c">integer</text>
<polygon fill="none" stroke="#29235c" stroke-width="2" points="498.39,-476.39 498.39,-898.39 805.39,-898.39 805.39,-476.39 498.39,-476.39"/>
</g>
<!-- users -->
<g id="users" class="node">
<title>users</title>
<ellipse fill="none" stroke="black" stroke-width="0" cx="1150.34" cy="-747.39" rx="195.32" ry="214.92"/>
<polygon fill="#1d71b8" stroke="transparent" points="1014.34,-837.39 1014.34,-897.39 1286.34,-897.39 1286.34,-837.39 1014.34,-837.39"/>
<polygon fill="none" stroke="#29235c" points="1014.34,-837.39 1014.34,-897.39 1286.34,-897.39 1286.34,-837.39 1014.34,-837.39"/>
<text text-anchor="start" x="1048.97" y="-858.59" font-family="Helvetica,sans-Serif" font-weight="bold" font-size="32.00" fill="#ffffff"> &#160;&#160;&#160;&#160;&#160;&#160;users &#160;&#160;&#160;&#160;&#160;&#160;</text>
<polygon fill="#e7e2dd" stroke="transparent" points="1014.34,-777.39 1014.34,-837.39 1286.34,-837.39 1286.34,-777.39 1014.34,-777.39"/>
<polygon fill="none" stroke="#29235c" points="1014.34,-777.39 1014.34,-837.39 1286.34,-837.39 1286.34,-777.39 1014.34,-777.39"/>
<text text-anchor="start" x="1025.34" y="-798.59" font-family="Helvetica,sans-Serif" font-weight="bold" font-size="32.00" fill="#29235c">id</text>
<text text-anchor="start" x="1050.23" y="-798.59" font-family="Helvetica,sans-Serif" font-size="32.00" fill="#29235c"> &#160;&#160;&#160;</text>
<text text-anchor="start" x="1177.54" y="-798.59" font-family="Helvetica,sans-Serif" font-style="italic" font-size="32.00" fill="#29235c">integer</text>
<polygon fill="#e7e2dd" stroke="transparent" points="1014.34,-717.39 1014.34,-777.39 1286.34,-777.39 1286.34,-717.39 1014.34,-717.39"/>
<polygon fill="none" stroke="#29235c" points="1014.34,-717.39 1014.34,-777.39 1286.34,-777.39 1286.34,-717.39 1014.34,-717.39"/>
<text text-anchor="start" x="1025.32" y="-737.59" font-family="Helvetica,sans-Serif" font-size="32.00" fill="#29235c">prenom &#160;&#160;&#160;</text>
<text text-anchor="start" x="1169" y="-738.59" font-family="Helvetica,sans-Serif" font-style="italic" font-size="32.00" fill="#29235c">varchar</text>
<polygon fill="#e7e2dd" stroke="transparent" points="1014.34,-657.39 1014.34,-717.39 1286.34,-717.39 1286.34,-657.39 1014.34,-657.39"/>
<polygon fill="none" stroke="#29235c" points="1014.34,-657.39 1014.34,-717.39 1286.34,-717.39 1286.34,-657.39 1014.34,-657.39"/>
<text text-anchor="start" x="1025.34" y="-677.59" font-family="Helvetica,sans-Serif" font-size="32.00" fill="#29235c">nom &#160;&#160;&#160;</text>
<text text-anchor="start" x="1168.67" y="-678.59" font-family="Helvetica,sans-Serif" font-style="italic" font-size="32.00" fill="#29235c">varchar</text>
<polygon fill="#e7e2dd" stroke="transparent" points="1014.34,-597.39 1014.34,-657.39 1286.34,-657.39 1286.34,-597.39 1014.34,-597.39"/>
<polygon fill="none" stroke="#29235c" points="1014.34,-597.39 1014.34,-657.39 1286.34,-657.39 1286.34,-597.39 1014.34,-597.39"/>
<text text-anchor="start" x="1025.34" y="-617.59" font-family="Helvetica,sans-Serif" font-size="32.00" fill="#29235c">id_pc &#160;&#160;&#160;</text>
<text text-anchor="start" x="1177.54" y="-618.59" font-family="Helvetica,sans-Serif" font-style="italic" font-size="32.00" fill="#29235c">integer</text>
<polygon fill="none" stroke="#29235c" stroke-width="2" points="1013.34,-596.39 1013.34,-898.39 1287.34,-898.39 1287.34,-596.39 1013.34,-596.39"/>
</g>
<!-- pc&#45;&gt;users -->
<!-- pc&#45;&gt;users -->
<g id="edge2" class="edge">
<title>pc:e&#45;&gt;users:w</title>
<path fill="none" stroke="#29235c" stroke-width="3" d="M805.89,-807.39C924.5,-807.39 893.22,-637.44 1003.34,-627.81"/>
<polygon fill="#29235c" stroke="#29235c" stroke-width="3" points="1003.5,-631.31 1013.34,-627.39 1003.2,-624.31 1003.5,-631.31"/>
<text text-anchor="middle" x="1019.56" y="-636.99" font-family="Helvetica,sans-Serif" font-size="32.00" fill="#29235c">*</text>
<text text-anchor="middle" x="797" y="-816.99" font-family="Helvetica,sans-Serif" font-size="32.00" fill="#29235c">1</text>
</g>
<!-- maintenance -->
<g id="maintenance" class="node">
<title>maintenance</title>
<ellipse fill="none" stroke="black" stroke-width="0" cx="1150.34" cy="-257.39" rx="243.9" ry="257.27"/>
<polygon fill="#1d71b8" stroke="transparent" points="980.34,-377.39 980.34,-437.39 1321.34,-437.39 1321.34,-377.39 980.34,-377.39"/>
<polygon fill="none" stroke="#29235c" points="980.34,-377.39 980.34,-437.39 1321.34,-437.39 1321.34,-377.39 980.34,-377.39"/>
<text text-anchor="start" x="997" y="-398.59" font-family="Helvetica,sans-Serif" font-weight="bold" font-size="32.00" fill="#ffffff"> &#160;&#160;&#160;&#160;&#160;&#160;maintenance &#160;&#160;&#160;&#160;&#160;&#160;</text>
<polygon fill="#e7e2dd" stroke="transparent" points="980.34,-317.39 980.34,-377.39 1321.34,-377.39 1321.34,-317.39 980.34,-317.39"/>
<polygon fill="none" stroke="#29235c" points="980.34,-317.39 980.34,-377.39 1321.34,-377.39 1321.34,-317.39 980.34,-317.39"/>
<text text-anchor="start" x="991.34" y="-338.59" font-family="Helvetica,sans-Serif" font-weight="bold" font-size="32.00" fill="#29235c">id</text>
<text text-anchor="start" x="1016.23" y="-338.59" font-family="Helvetica,sans-Serif" font-size="32.00" fill="#29235c"> &#160;&#160;&#160;</text>
<text text-anchor="start" x="1212.54" y="-338.59" font-family="Helvetica,sans-Serif" font-style="italic" font-size="32.00" fill="#29235c">integer</text>
<polygon fill="#e7e2dd" stroke="transparent" points="980.34,-257.39 980.34,-317.39 1321.34,-317.39 1321.34,-257.39 980.34,-257.39"/>
<polygon fill="none" stroke="#29235c" points="980.34,-257.39 980.34,-317.39 1321.34,-317.39 1321.34,-257.39 980.34,-257.39"/>
<text text-anchor="start" x="991.34" y="-277.59" font-family="Helvetica,sans-Serif" font-size="32.00" fill="#29235c">description &#160;&#160;&#160;</text>
<text text-anchor="start" x="1258.76" y="-278.59" font-family="Helvetica,sans-Serif" font-style="italic" font-size="32.00" fill="#29235c">text</text>
<polygon fill="#e7e2dd" stroke="transparent" points="980.34,-197.39 980.34,-257.39 1321.34,-257.39 1321.34,-197.39 980.34,-197.39"/>
<polygon fill="none" stroke="#29235c" points="980.34,-197.39 980.34,-257.39 1321.34,-257.39 1321.34,-197.39 980.34,-197.39"/>
<text text-anchor="start" x="991.34" y="-217.59" font-family="Helvetica,sans-Serif" font-size="32.00" fill="#29235c">date &#160;&#160;&#160;</text>
<text text-anchor="start" x="1248.08" y="-218.59" font-family="Helvetica,sans-Serif" font-style="italic" font-size="32.00" fill="#29235c">date</text>
<polygon fill="#e7e2dd" stroke="transparent" points="980.34,-137.39 980.34,-197.39 1321.34,-197.39 1321.34,-137.39 980.34,-137.39"/>
<polygon fill="none" stroke="#29235c" points="980.34,-137.39 980.34,-197.39 1321.34,-197.39 1321.34,-137.39 980.34,-137.39"/>
<text text-anchor="start" x="991.34" y="-157.59" font-family="Helvetica,sans-Serif" font-size="32.00" fill="#29235c">id_pc &#160;&#160;&#160;</text>
<text text-anchor="start" x="1212.54" y="-158.59" font-family="Helvetica,sans-Serif" font-style="italic" font-size="32.00" fill="#29235c">integer</text>
<polygon fill="#e7e2dd" stroke="transparent" points="980.34,-77.39 980.34,-137.39 1321.34,-137.39 1321.34,-77.39 980.34,-77.39"/>
<polygon fill="none" stroke="#29235c" points="980.34,-77.39 980.34,-137.39 1321.34,-137.39 1321.34,-77.39 980.34,-77.39"/>
<text text-anchor="start" x="991.19" y="-97.59" font-family="Helvetica,sans-Serif" font-size="32.00" fill="#29235c">id_technicien &#160;&#160;&#160;</text>
<text text-anchor="start" x="1212.94" y="-98.59" font-family="Helvetica,sans-Serif" font-style="italic" font-size="32.00" fill="#29235c">integer</text>
<polygon fill="none" stroke="#29235c" stroke-width="2" points="978.84,-76.39 978.84,-438.39 1321.84,-438.39 1321.84,-76.39 978.84,-76.39"/>
</g>
<!-- pc&#45;&gt;maintenance -->
<!-- pc&#45;&gt;maintenance -->
<g id="edge4" class="edge">
<title>pc:e&#45;&gt;maintenance:w</title>
<path fill="none" stroke="#29235c" stroke-width="3" d="M805.89,-807.39C949.65,-807.39 837.75,-198.26 969.02,-168.51"/>
<polygon fill="#29235c" stroke="#29235c" stroke-width="3" points="969.78,-171.95 979.34,-167.39 969.02,-164.99 969.78,-171.95"/>
<text text-anchor="middle" x="985.56" y="-138.59" font-family="Helvetica,sans-Serif" font-size="32.00" fill="#29235c">*</text>
<text text-anchor="middle" x="814.78" y="-816.99" font-family="Helvetica,sans-Serif" font-size="32.00" fill="#29235c">1</text>
</g>
<!-- logiciels -->
<g id="logiciels" class="node">
<title>logiciels</title>
<ellipse fill="none" stroke="black" stroke-width="0" cx="198.7" cy="-227.39" rx="190.84" ry="172.57"/>
<polygon fill="#1d71b8" stroke="transparent" points="65.7,-287.39 65.7,-347.39 331.7,-347.39 331.7,-287.39 65.7,-287.39"/>
<polygon fill="none" stroke="#29235c" points="65.7,-287.39 65.7,-347.39 331.7,-347.39 331.7,-287.39 65.7,-287.39"/>
<text text-anchor="start" x="79.56" y="-308.59" font-family="Helvetica,sans-Serif" font-weight="bold" font-size="32.00" fill="#ffffff"> &#160;&#160;&#160;&#160;&#160;&#160;logiciels &#160;&#160;&#160;&#160;&#160;&#160;</text>
<polygon fill="#e7e2dd" stroke="transparent" points="65.7,-227.39 65.7,-287.39 331.7,-287.39 331.7,-227.39 65.7,-227.39"/>
<polygon fill="none" stroke="#29235c" points="65.7,-227.39 65.7,-287.39 331.7,-287.39 331.7,-227.39 65.7,-227.39"/>
<text text-anchor="start" x="76.7" y="-248.59" font-family="Helvetica,sans-Serif" font-weight="bold" font-size="32.00" fill="#29235c">id</text>
<text text-anchor="start" x="101.59" y="-248.59" font-family="Helvetica,sans-Serif" font-size="32.00" fill="#29235c"> &#160;&#160;&#160;</text>
<text text-anchor="start" x="222.9" y="-248.59" font-family="Helvetica,sans-Serif" font-style="italic" font-size="32.00" fill="#29235c">integer</text>
<polygon fill="#e7e2dd" stroke="transparent" points="65.7,-167.39 65.7,-227.39 331.7,-227.39 331.7,-167.39 65.7,-167.39"/>
<polygon fill="none" stroke="#29235c" points="65.7,-167.39 65.7,-227.39 331.7,-227.39 331.7,-167.39 65.7,-167.39"/>
<text text-anchor="start" x="76.7" y="-187.59" font-family="Helvetica,sans-Serif" font-size="32.00" fill="#29235c">nom &#160;&#160;&#160;</text>
<text text-anchor="start" x="214.03" y="-188.59" font-family="Helvetica,sans-Serif" font-style="italic" font-size="32.00" fill="#29235c">varchar</text>
<polygon fill="#e7e2dd" stroke="transparent" points="65.7,-107.39 65.7,-167.39 331.7,-167.39 331.7,-107.39 65.7,-107.39"/>
<polygon fill="none" stroke="#29235c" points="65.7,-107.39 65.7,-167.39 331.7,-167.39 331.7,-107.39 65.7,-107.39"/>
<text text-anchor="start" x="76.35" y="-127.59" font-family="Helvetica,sans-Serif" font-size="32.00" fill="#29235c">version &#160;&#160;&#160;</text>
<text text-anchor="start" x="214.36" y="-128.59" font-family="Helvetica,sans-Serif" font-style="italic" font-size="32.00" fill="#29235c">varchar</text>
<polygon fill="none" stroke="#29235c" stroke-width="2" points="64.7,-106.39 64.7,-348.39 332.7,-348.39 332.7,-106.39 64.7,-106.39"/>
</g>
<!-- logiciels&#45;&gt;pc -->
<!-- logiciels&#45;&gt;pc -->
<g id="edge6" class="edge">
<title>logiciels:e&#45;&gt;pc:w</title>
<path fill="none" stroke="#29235c" stroke-width="3" d="M332.7,-257.39C462.6,-257.39 370.61,-494.38 488.82,-506.87"/>
<polygon fill="#29235c" stroke="#29235c" stroke-width="3" points="488.73,-510.37 498.89,-507.39 489.08,-503.38 488.73,-510.37"/>
<text text-anchor="middle" x="492.67" y="-478.59" font-family="Helvetica,sans-Serif" font-size="32.00" fill="#29235c">*</text>
<text text-anchor="middle" x="341.59" y="-257.39" font-family="Helvetica,sans-Serif" font-size="32.00" fill="#29235c">1</text>
</g>
<!-- marque -->
<g id="marque" class="node">
<title>marque</title>
<ellipse fill="none" stroke="black" stroke-width="0" cx="198.7" cy="-1104.39" rx="182.37" ry="130.22"/>
<polygon fill="#1d71b8" stroke="transparent" points="71.7,-1134.39 71.7,-1194.39 325.7,-1194.39 325.7,-1134.39 71.7,-1134.39"/>
<polygon fill="none" stroke="#29235c" points="71.7,-1134.39 71.7,-1194.39 325.7,-1194.39 325.7,-1134.39 71.7,-1134.39"/>
<text text-anchor="start" x="82.22" y="-1155.59" font-family="Helvetica,sans-Serif" font-weight="bold" font-size="32.00" fill="#ffffff"> &#160;&#160;&#160;&#160;&#160;&#160;marque &#160;&#160;&#160;&#160;&#160;&#160;</text>
<polygon fill="#e7e2dd" stroke="transparent" points="71.7,-1074.39 71.7,-1134.39 325.7,-1134.39 325.7,-1074.39 71.7,-1074.39"/>
<polygon fill="none" stroke="#29235c" points="71.7,-1074.39 71.7,-1134.39 325.7,-1134.39 325.7,-1074.39 71.7,-1074.39"/>
<text text-anchor="start" x="82.7" y="-1095.59" font-family="Helvetica,sans-Serif" font-weight="bold" font-size="32.00" fill="#29235c">id</text>
<text text-anchor="start" x="107.59" y="-1095.59" font-family="Helvetica,sans-Serif" font-size="32.00" fill="#29235c"> &#160;&#160;&#160;</text>
<text text-anchor="start" x="216.9" y="-1095.59" font-family="Helvetica,sans-Serif" font-style="italic" font-size="32.00" fill="#29235c">integer</text>
<polygon fill="#e7e2dd" stroke="transparent" points="71.7,-1014.39 71.7,-1074.39 325.7,-1074.39 325.7,-1014.39 71.7,-1014.39"/>
<polygon fill="none" stroke="#29235c" points="71.7,-1014.39 71.7,-1074.39 325.7,-1074.39 325.7,-1014.39 71.7,-1014.39"/>
<text text-anchor="start" x="82.7" y="-1034.59" font-family="Helvetica,sans-Serif" font-size="32.00" fill="#29235c">nom &#160;&#160;&#160;</text>
<text text-anchor="start" x="208.03" y="-1035.59" font-family="Helvetica,sans-Serif" font-style="italic" font-size="32.00" fill="#29235c">varchar</text>
<polygon fill="none" stroke="#29235c" stroke-width="2" points="70.7,-1013.39 70.7,-1195.39 326.7,-1195.39 326.7,-1013.39 70.7,-1013.39"/>
</g>
<!-- marque&#45;&gt;pc -->
<!-- marque&#45;&gt;pc -->
<g id="edge10" class="edge">
<title>marque:e&#45;&gt;pc:w</title>
<path fill="none" stroke="#29235c" stroke-width="3" d="M326.7,-1104.39C523.69,-1104.39 306.29,-701.92 488.71,-687.77"/>
<polygon fill="#29235c" stroke="#29235c" stroke-width="3" points="489.03,-691.26 498.89,-687.39 488.77,-684.26 489.03,-691.26"/>
<text text-anchor="middle" x="492.67" y="-696.99" font-family="Helvetica,sans-Serif" font-size="32.00" fill="#29235c">*</text>
<text text-anchor="middle" x="317.8" y="-1113.99" font-family="Helvetica,sans-Serif" font-size="32.00" fill="#29235c">1</text>
</g>
<!-- technicien -->
<g id="technicien" class="node">
<title>technicien</title>
<ellipse fill="none" stroke="black" stroke-width="0" cx="651.89" cy="-197.39" rx="207.78" ry="172.57"/>
<polygon fill="#1d71b8" stroke="transparent" points="506.89,-257.39 506.89,-317.39 796.89,-317.39 796.89,-257.39 506.89,-257.39"/>
<polygon fill="none" stroke="#29235c" points="506.89,-257.39 506.89,-317.39 796.89,-317.39 796.89,-257.39 506.89,-257.39"/>
<text text-anchor="start" x="517.62" y="-278.59" font-family="Helvetica,sans-Serif" font-weight="bold" font-size="32.00" fill="#ffffff"> &#160;&#160;&#160;&#160;&#160;&#160;technicien &#160;&#160;&#160;&#160;&#160;&#160;</text>
<polygon fill="#e7e2dd" stroke="transparent" points="506.89,-197.39 506.89,-257.39 796.89,-257.39 796.89,-197.39 506.89,-197.39"/>
<polygon fill="none" stroke="#29235c" points="506.89,-197.39 506.89,-257.39 796.89,-257.39 796.89,-197.39 506.89,-197.39"/>
<text text-anchor="start" x="517.89" y="-218.59" font-family="Helvetica,sans-Serif" font-weight="bold" font-size="32.00" fill="#29235c">id</text>
<text text-anchor="start" x="542.78" y="-218.59" font-family="Helvetica,sans-Serif" font-size="32.00" fill="#29235c"> &#160;&#160;&#160;</text>
<text text-anchor="start" x="688.09" y="-218.59" font-family="Helvetica,sans-Serif" font-style="italic" font-size="32.00" fill="#29235c">integer</text>
<polygon fill="#e7e2dd" stroke="transparent" points="506.89,-137.39 506.89,-197.39 796.89,-197.39 796.89,-137.39 506.89,-137.39"/>
<polygon fill="none" stroke="#29235c" points="506.89,-137.39 506.89,-197.39 796.89,-197.39 796.89,-137.39 506.89,-137.39"/>
<text text-anchor="start" x="517.89" y="-157.59" font-family="Helvetica,sans-Serif" font-size="32.00" fill="#29235c">prenom &#160;&#160;&#160;</text>
<text text-anchor="start" x="679.22" y="-158.59" font-family="Helvetica,sans-Serif" font-style="italic" font-size="32.00" fill="#29235c">varchar</text>
<polygon fill="#e7e2dd" stroke="transparent" points="506.89,-77.39 506.89,-137.39 796.89,-137.39 796.89,-77.39 506.89,-77.39"/>
<polygon fill="none" stroke="#29235c" points="506.89,-77.39 506.89,-137.39 796.89,-137.39 796.89,-77.39 506.89,-77.39"/>
<text text-anchor="start" x="517.89" y="-97.59" font-family="Helvetica,sans-Serif" font-size="32.00" fill="#29235c">nom &#160;&#160;&#160;</text>
<text text-anchor="start" x="679.22" y="-98.59" font-family="Helvetica,sans-Serif" font-style="italic" font-size="32.00" fill="#29235c">varchar</text>
<polygon fill="none" stroke="#29235c" stroke-width="2" points="505.89,-76.39 505.89,-318.39 797.89,-318.39 797.89,-76.39 505.89,-76.39"/>
</g>
<!-- technicien&#45;&gt;maintenance -->
<!-- technicien&#45;&gt;maintenance -->
<g id="edge8" class="edge">
<title>technicien:e&#45;&gt;maintenance:w</title>
<path fill="none" stroke="#29235c" stroke-width="3" d="M797.89,-227.39C891.08,-227.39 883.37,-115.9 969.27,-107.85"/>
<polygon fill="#29235c" stroke="#29235c" stroke-width="3" points="969.51,-111.34 979.34,-107.39 969.19,-104.35 969.51,-111.34"/>
<text text-anchor="middle" x="985.56" y="-78.59" font-family="Helvetica,sans-Serif" font-size="32.00" fill="#29235c">*</text>
<text text-anchor="middle" x="789" y="-198.59" font-family="Helvetica,sans-Serif" font-size="32.00" fill="#29235c">1</text>
</g>
<!-- os -->
<g id="os" class="node">
<title>os</title>
<ellipse fill="none" stroke="black" stroke-width="0" cx="198.7" cy="-548.39" rx="198.89" ry="130.22"/>
<polygon fill="#1d71b8" stroke="transparent" points="60.7,-578.39 60.7,-638.39 337.7,-638.39 337.7,-578.39 60.7,-578.39"/>
<polygon fill="none" stroke="#29235c" points="60.7,-578.39 60.7,-638.39 337.7,-638.39 337.7,-578.39 60.7,-578.39"/>
<text text-anchor="start" x="120.05" y="-599.59" font-family="Helvetica,sans-Serif" font-weight="bold" font-size="32.00" fill="#ffffff"> &#160;&#160;&#160;&#160;&#160;&#160;os &#160;&#160;&#160;&#160;&#160;&#160;</text>
<polygon fill="#e7e2dd" stroke="transparent" points="60.7,-518.39 60.7,-578.39 337.7,-578.39 337.7,-518.39 60.7,-518.39"/>
<polygon fill="none" stroke="#29235c" points="60.7,-518.39 60.7,-578.39 337.7,-578.39 337.7,-518.39 60.7,-518.39"/>
<text text-anchor="start" x="71.7" y="-539.59" font-family="Helvetica,sans-Serif" font-weight="bold" font-size="32.00" fill="#29235c">id</text>
<text text-anchor="start" x="96.59" y="-539.59" font-family="Helvetica,sans-Serif" font-size="32.00" fill="#29235c"> &#160;&#160;&#160;</text>
<text text-anchor="start" x="228.9" y="-539.59" font-family="Helvetica,sans-Serif" font-style="italic" font-size="32.00" fill="#29235c">integer</text>
<polygon fill="#e7e2dd" stroke="transparent" points="60.7,-458.39 60.7,-518.39 337.7,-518.39 337.7,-458.39 60.7,-458.39"/>
<polygon fill="none" stroke="#29235c" points="60.7,-458.39 60.7,-518.39 337.7,-518.39 337.7,-458.39 60.7,-458.39"/>
<text text-anchor="start" x="71.51" y="-478.59" font-family="Helvetica,sans-Serif" font-size="32.00" fill="#29235c">nom_os &#160;&#160;&#160;</text>
<text text-anchor="start" x="220.36" y="-479.59" font-family="Helvetica,sans-Serif" font-style="italic" font-size="32.00" fill="#29235c">varchar</text>
<polygon fill="none" stroke="#29235c" stroke-width="2" points="59.2,-457.39 59.2,-639.39 338.2,-639.39 338.2,-457.39 59.2,-457.39"/>
</g>
<!-- os&#45;&gt;pc -->
<!-- os&#45;&gt;pc -->
<g id="edge14" class="edge">
<title>os:e&#45;&gt;pc:w</title>
<path fill="none" stroke="#29235c" stroke-width="3" d="M338.7,-548.39C406.89,-548.39 425.42,-565.58 488.77,-567.26"/>
<polygon fill="#29235c" stroke="#29235c" stroke-width="3" points="488.85,-570.76 498.89,-567.39 488.94,-563.76 488.85,-570.76"/>
<text text-anchor="middle" x="492.67" y="-576.99" font-family="Helvetica,sans-Serif" font-size="32.00" fill="#29235c">*</text>
<text text-anchor="middle" x="329.8" y="-557.99" font-family="Helvetica,sans-Serif" font-size="32.00" fill="#29235c">1</text>
</g>
<!-- ram -->
<g id="ram" class="node">
<title>ram</title>
<ellipse fill="none" stroke="black" stroke-width="0" cx="198.7" cy="-826.39" rx="188.6" ry="130.22"/>
<polygon fill="#1d71b8" stroke="transparent" points="67.7,-856.39 67.7,-916.39 330.7,-916.39 330.7,-856.39 67.7,-856.39"/>
<polygon fill="none" stroke="#29235c" points="67.7,-856.39 67.7,-916.39 330.7,-916.39 330.7,-856.39 67.7,-856.39"/>
<text text-anchor="start" x="109.4" y="-877.59" font-family="Helvetica,sans-Serif" font-weight="bold" font-size="32.00" fill="#ffffff"> &#160;&#160;&#160;&#160;&#160;&#160;ram &#160;&#160;&#160;&#160;&#160;&#160;</text>
<polygon fill="#e7e2dd" stroke="transparent" points="67.7,-796.39 67.7,-856.39 330.7,-856.39 330.7,-796.39 67.7,-796.39"/>
<polygon fill="none" stroke="#29235c" points="67.7,-796.39 67.7,-856.39 330.7,-856.39 330.7,-796.39 67.7,-796.39"/>
<text text-anchor="start" x="78.7" y="-817.59" font-family="Helvetica,sans-Serif" font-weight="bold" font-size="32.00" fill="#29235c">id</text>
<text text-anchor="start" x="103.59" y="-817.59" font-family="Helvetica,sans-Serif" font-size="32.00" fill="#29235c"> &#160;&#160;&#160;</text>
<text text-anchor="start" x="221.9" y="-817.59" font-family="Helvetica,sans-Serif" font-style="italic" font-size="32.00" fill="#29235c">integer</text>
<polygon fill="#e7e2dd" stroke="transparent" points="67.7,-736.39 67.7,-796.39 330.7,-796.39 330.7,-736.39 67.7,-736.39"/>
<polygon fill="none" stroke="#29235c" points="67.7,-736.39 67.7,-796.39 330.7,-796.39 330.7,-736.39 67.7,-736.39"/>
<text text-anchor="start" x="78.68" y="-756.59" font-family="Helvetica,sans-Serif" font-size="32.00" fill="#29235c">ram_gb &#160;&#160;&#160;</text>
<text text-anchor="start" x="222.3" y="-757.59" font-family="Helvetica,sans-Serif" font-style="italic" font-size="32.00" fill="#29235c">integer</text>
<polygon fill="none" stroke="#29235c" stroke-width="2" points="66.2,-735.39 66.2,-917.39 331.2,-917.39 331.2,-735.39 66.2,-735.39"/>
</g>
<!-- ram&#45;&gt;pc -->
<!-- ram&#45;&gt;pc -->
<g id="edge12" class="edge">
<title>ram:e&#45;&gt;pc:w</title>
<path fill="none" stroke="#29235c" stroke-width="3" d="M331.7,-826.39C443.72,-826.39 387.07,-639.25 488.88,-627.92"/>
<polygon fill="#29235c" stroke="#29235c" stroke-width="3" points="489.09,-631.42 498.89,-627.39 488.72,-624.43 489.09,-631.42"/>
<text text-anchor="middle" x="492.67" y="-636.99" font-family="Helvetica,sans-Serif" font-size="32.00" fill="#29235c">*</text>
<text text-anchor="middle" x="322.8" y="-835.99" font-family="Helvetica,sans-Serif" font-size="32.00" fill="#29235c">1</text>
</g>
</g>
</svg>
